<?xml version="1.0" encoding="UTF-8"?>
<svg version="1.1" xmlns="http://www.w3.org/2000/svg" width="146" height="126">
<path d="M0 0 C48.18 0 96.36 0 146 0 C146 41.58 146 83.16 146 126 C97.82 126 49.64 126 0 126 C0 84.42 0 42.84 0 0 Z " fill="DarkGreen" transform="translate(0,0)"/>
<path d="M0 0 C4.30489076 1.94079491 7.16561595 4.20070181 9.73046875 8.26171875 C9.73046875 8.92171875 9.73046875 9.58171875 9.73046875 10.26171875 C10.78234375 10.30039062 10.78234375 10.30039062 11.85546875 10.33984375 C18.96824297 10.76506395 24.89723532 11.70228771 30.26171875 16.68359375 C34.17058009 21.09242573 35.67146384 24.81586406 35.91796875 30.57421875 C36.34373566 35.5114773 38.50742584 37.82670976 42.0390625 41.14453125 C44.29229269 43.96497181 44.90101954 46.78553461 45.73046875 50.26171875 C44.786875 50.54144531 43.84328125 50.82117187 42.87109375 51.109375 C34.00276531 53.84237458 26.6002077 57.27442252 18.73046875 62.26171875 C17.74046875 62.75671875 17.74046875 62.75671875 16.73046875 63.26171875 C16.4365625 61.80765625 16.4365625 61.80765625 16.13671875 60.32421875 C13.22888352 46.94076389 7.71400016 29.25073969 -4.26953125 21.26171875 C-6.25923075 20.87158159 -8.25972994 20.52969226 -10.26953125 20.26171875 C-10.5428125 20.85855469 -10.81609375 21.45539062 -11.09765625 22.0703125 C-12.23048427 24.18870089 -13.37402356 25.59466631 -15.01953125 27.32421875 C-23.84624322 37.44264466 -27.68375391 50.33283203 -30.26953125 63.26171875 C-30.97335938 62.81441406 -31.6771875 62.36710937 -32.40234375 61.90625 C-40.15273298 57.16090724 -47.60756852 54.05292378 -56.26953125 51.26171875 C-57.25953125 50.93171875 -58.24953125 50.60171875 -59.26953125 50.26171875 C-57.80312696 45.12930375 -55.79268853 40.43494911 -51.6640625 36.87890625 C-49.80951088 34.72824975 -49.93859969 33.3813781 -49.89453125 30.57421875 C-49.40058605 23.80716957 -46.62412288 19.4985808 -41.76953125 14.88671875 C-37.42943618 12.06565696 -33.60235565 11.00866991 -28.45703125 10.63671875 C-26.99330078 10.52457031 -26.99330078 10.52457031 -25.5 10.41015625 C-24.39591797 10.33667969 -24.39591797 10.33667969 -23.26953125 10.26171875 C-23.02203125 9.50503906 -22.77453125 8.74835937 -22.51953125 7.96875 C-18.49722407 -0.742059 -8.48560053 -2.76037608 0 0 Z " fill="#FDFDFD" transform="translate(79.26953125,10.73828125)"/>
<path d="M0 0 C-0.68808227 10.8372957 -4.83487491 18.22790773 -11 27 C-11.66 27.99 -12.32 28.98 -13 30 C-13.66 30 -14.32 30 -15 30 C-15 30.66 -15 31.32 -15 32 C-16.92612449 33.56384402 -18.83140016 34.97940544 -20.875 36.375 C-21.75224731 36.98009399 -21.75224731 36.98009399 -22.6472168 37.59741211 C-27.4936131 40.84790706 -32.43586596 43.20390256 -38 45 C-38 47.31 -38 49.62 -38 52 C-34.41544733 53.38756878 -32.21013131 52.90137306 -28.8125 51.4375 C-27.19567034 50.65050013 -25.59180543 49.83645827 -24 49 C-22.78570312 48.36191406 -22.78570312 48.36191406 -21.546875 47.7109375 C-7.2505682 39.66364531 1.05405519 28.75905991 6.95703125 13.62890625 C8 11 8 11 10 7 C10 23.17 10 39.34 10 56 C-13.43 56 -36.86 56 -61 56 C-59.02 53.69 -57.04 51.38 -55 49 C-49.13268957 40.9368752 -44.31129536 32.05213242 -42.1875 22.25 C-38.85142014 13.11967617 -29.27450055 8.10999566 -21 4 C-14.11792252 1.13159213 -7.47405822 -0.17795377 0 0 Z " fill="#FDFDFD" transform="translate(136,70)"/>
<path d="M0 0 C14.80040887 0.58269326 28.85645617 5.59169864 39.26171875 16.4765625 C42.15624616 20.67850566 43.35741064 25.41692506 44.8046875 30.25 C47.73147431 39.43207626 52.63080731 46.184706 59.2421875 53.1015625 C61 55 61 55 61 56 C37.9 56 14.8 56 -9 56 C-9 41.15 -9 26.3 -9 11 C-6.92374943 14.11437585 -5.42093431 17.24618377 -3.8125 20.625 C2.31771903 33.1022522 10.41684338 41.74045529 22.625 48.375 C23.25857422 48.72119385 23.89214844 49.0673877 24.54492188 49.42407227 C28.34223783 51.40357697 31.71766565 52.67300824 36 53 C38.06402685 52.01951062 38.06402685 52.01951062 39 50 C39.02337038 47.46884288 39.02337038 47.46884288 38 45 C35.62046224 43.58025254 35.62046224 43.58025254 32.625 42.6875 C19.02032114 37.48476058 9.94430195 28.41282245 3.5625 15.4375 C1.26170279 10.17497196 0.19403016 5.72388971 0 0 Z " fill="#FDFEFD" transform="translate(9,70)"/>
<path d="M0 0 C22.11 0 44.22 0 67 0 C67 20.46 67 40.92 67 62 C56 60 56 60 54.0078125 57.390625 C53.71648437 56.35421875 53.42515625 55.3178125 53.125 54.25 C51.52284067 49.1106336 51.52284067 49.1106336 48.3125 44.9375 C45.8427444 41.80024288 45.59636164 40.57778798 45.0625 36.75 C44.00274769 29.66892776 41.28697146 24.08519697 36.02734375 19.1484375 C31.84297977 16.06522193 28.07524249 14.66458529 23 13.625 C17.17599231 12.39811513 14.27102185 10.00993763 10.11328125 5.875 C6.9934396 3.10693347 3.97081349 2.15514574 0 1 C0 0.67 0 0.34 0 0 Z " fill="#FEFEFE" transform="translate(79,0)"/>
<path d="M0 0 C21.78 0 43.56 0 66 0 C64.68 0.66 63.36 1.32 62 2 C58.10437686 4.20726162 54.68527408 6.20051357 51.75 9.625 C48.71242304 12.24836192 47.10425934 12.60533037 43.25 13.4375 C34.96029726 15.29097162 29.29146738 18.50858567 24.5625 25.6875 C22.06500449 30.21293464 21.31389957 34.34122045 20.6171875 39.41015625 C19.75613159 43.02332124 17.89765964 45.15159488 15.53125 47.94140625 C12.81440888 51.59389418 11.53759858 55.7420347 10 60 C5.05 60.495 5.05 60.495 0 61 C0 40.87 0 20.74 0 0 Z " fill="#FEFEFE" transform="translate(0,0)"/>
<path d="M0 0 C9.07077802 7.47005249 12.74760672 19.69267781 14 31 C14.4930938 46.1215431 10.55484587 59.04955877 1 71 C-8.84217328 62.89468083 -11.8567088 49.73385428 -13.28125 37.60546875 C-13.88915072 23.95303166 -8.67263735 10.35846319 0 0 Z " fill="#FDFDFD" transform="translate(72,43)"/>
<path d="M0 0 C0.66 0.33 1.32 0.66 2 1 C-1.3 4.3 -4.6 7.6 -8 11 C-8 7.0234755 -6.61988497 5.9109833 -4 3 C-1.75 1.1875 -1.75 1.1875 0 0 Z " fill="#4F7D4E" transform="translate(33,16)"/>
</svg>
